<mxfile host="Electron" agent="Mozilla/5.0 (Windows NT 10.0; Win64; x64) AppleWebKit/537.36 (KHTML, like Gecko) draw.io/24.7.8 Chrome/128.0.6613.36 Electron/32.0.1 Safari/537.36" version="24.7.8">
  <diagram name="Page-1" id="hYTQS2aQOwHwx2M3nFu4">
    <mxGraphModel dx="880" dy="532" grid="1" gridSize="10" guides="1" tooltips="1" connect="1" arrows="1" fold="1" page="1" pageScale="1" pageWidth="850" pageHeight="1100" math="0" shadow="0">
      <root>
        <mxCell id="0" />
        <mxCell id="1" parent="0" />
        <mxCell id="OClYr13SCYS-E_LwmGBs-1" value="" style="rounded=0;whiteSpace=wrap;html=1;" vertex="1" parent="1">
          <mxGeometry x="110" y="80" width="620" height="380" as="geometry" />
        </mxCell>
        <mxCell id="OClYr13SCYS-E_LwmGBs-3" value="" style="rounded=0;whiteSpace=wrap;html=1;" vertex="1" parent="1">
          <mxGeometry x="540" y="80" width="190" height="110" as="geometry" />
        </mxCell>
        <mxCell id="OClYr13SCYS-E_LwmGBs-4" value="" style="sketch=0;pointerEvents=1;shadow=0;dashed=0;html=1;strokeColor=none;labelPosition=center;verticalLabelPosition=bottom;verticalAlign=top;align=center;fillColor=#515151;shape=mxgraph.mscae.system_center.admin_console" vertex="1" parent="1">
          <mxGeometry x="650" y="140" width="50" height="40" as="geometry" />
        </mxCell>
        <mxCell id="OClYr13SCYS-E_LwmGBs-5" value="" style="sketch=0;pointerEvents=1;shadow=0;dashed=0;html=1;strokeColor=none;labelPosition=center;verticalLabelPosition=bottom;verticalAlign=top;align=center;fillColor=#515151;shape=mxgraph.mscae.system_center.admin_console" vertex="1" parent="1">
          <mxGeometry x="580" y="140" width="50" height="36" as="geometry" />
        </mxCell>
        <mxCell id="OClYr13SCYS-E_LwmGBs-6" style="edgeStyle=orthogonalEdgeStyle;rounded=0;orthogonalLoop=1;jettySize=auto;html=1;exitX=0.5;exitY=1;exitDx=0;exitDy=0;" edge="1" parent="1" source="OClYr13SCYS-E_LwmGBs-3" target="OClYr13SCYS-E_LwmGBs-3">
          <mxGeometry relative="1" as="geometry" />
        </mxCell>
        <mxCell id="OClYr13SCYS-E_LwmGBs-9" value="" style="rounded=0;whiteSpace=wrap;html=1;" vertex="1" parent="1">
          <mxGeometry x="110" y="80" width="180" height="90" as="geometry" />
        </mxCell>
        <mxCell id="OClYr13SCYS-E_LwmGBs-8" value="" style="verticalLabelPosition=bottom;html=1;verticalAlign=top;align=center;shape=mxgraph.floorplan.toilet;" vertex="1" parent="1">
          <mxGeometry x="110" y="80" width="50" height="67" as="geometry" />
        </mxCell>
        <mxCell id="OClYr13SCYS-E_LwmGBs-10" value="" style="rounded=0;whiteSpace=wrap;html=1;" vertex="1" parent="1">
          <mxGeometry x="260" y="250" width="470" height="210" as="geometry" />
        </mxCell>
        <mxCell id="OClYr13SCYS-E_LwmGBs-7" value="" style="verticalLabelPosition=bottom;html=1;verticalAlign=top;align=center;shape=mxgraph.floorplan.doorLeft;aspect=fixed;direction=west;" vertex="1" parent="1">
          <mxGeometry x="647.5" y="250" width="80" height="85" as="geometry" />
        </mxCell>
        <mxCell id="OClYr13SCYS-E_LwmGBs-13" value="" style="shape=mxgraph.signs.sports.dirt_bike;html=1;pointerEvents=1;fillColor=#000000;strokeColor=none;verticalLabelPosition=bottom;verticalAlign=top;align=center;" vertex="1" parent="1">
          <mxGeometry x="370" y="396" width="80" height="64" as="geometry" />
        </mxCell>
        <mxCell id="OClYr13SCYS-E_LwmGBs-14" value="" style="shape=mxgraph.signs.sports.dirt_bike;html=1;pointerEvents=1;fillColor=#000000;strokeColor=none;verticalLabelPosition=bottom;verticalAlign=top;align=center;" vertex="1" parent="1">
          <mxGeometry x="370" y="320" width="80" height="64" as="geometry" />
        </mxCell>
        <mxCell id="OClYr13SCYS-E_LwmGBs-15" value="" style="shape=mxgraph.signs.sports.dirt_bike;html=1;pointerEvents=1;fillColor=#000000;strokeColor=none;verticalLabelPosition=bottom;verticalAlign=top;align=center;" vertex="1" parent="1">
          <mxGeometry x="455" y="396" width="80" height="64" as="geometry" />
        </mxCell>
        <mxCell id="OClYr13SCYS-E_LwmGBs-16" value="" style="shape=mxgraph.signs.sports.dirt_bike;html=1;pointerEvents=1;fillColor=#000000;strokeColor=none;verticalLabelPosition=bottom;verticalAlign=top;align=center;" vertex="1" parent="1">
          <mxGeometry x="540" y="396" width="80" height="64" as="geometry" />
        </mxCell>
        <mxCell id="OClYr13SCYS-E_LwmGBs-19" value="" style="shape=mxgraph.signs.sports.dirt_bike;html=1;pointerEvents=1;fillColor=#000000;strokeColor=none;verticalLabelPosition=bottom;verticalAlign=top;align=center;" vertex="1" parent="1">
          <mxGeometry x="460" y="320" width="80" height="64" as="geometry" />
        </mxCell>
        <mxCell id="OClYr13SCYS-E_LwmGBs-20" value="" style="shape=mxgraph.signs.sports.dirt_bike;html=1;pointerEvents=1;fillColor=#000000;strokeColor=none;verticalLabelPosition=bottom;verticalAlign=top;align=center;" vertex="1" parent="1">
          <mxGeometry x="540" y="320" width="80" height="64" as="geometry" />
        </mxCell>
        <mxCell id="OClYr13SCYS-E_LwmGBs-21" value="" style="shape=mxgraph.signs.sports.dirt_bike;html=1;pointerEvents=1;fillColor=#000000;strokeColor=none;verticalLabelPosition=bottom;verticalAlign=top;align=center;" vertex="1" parent="1">
          <mxGeometry x="370" y="256" width="80" height="64" as="geometry" />
        </mxCell>
        <mxCell id="OClYr13SCYS-E_LwmGBs-22" value="" style="shape=mxgraph.signs.sports.dirt_bike;html=1;pointerEvents=1;fillColor=#000000;strokeColor=none;verticalLabelPosition=bottom;verticalAlign=top;align=center;" vertex="1" parent="1">
          <mxGeometry x="460" y="256" width="80" height="64" as="geometry" />
        </mxCell>
        <mxCell id="OClYr13SCYS-E_LwmGBs-23" value="" style="shape=mxgraph.signs.sports.dirt_bike;html=1;pointerEvents=1;fillColor=#000000;strokeColor=none;verticalLabelPosition=bottom;verticalAlign=top;align=center;" vertex="1" parent="1">
          <mxGeometry x="280" y="396" width="80" height="64" as="geometry" />
        </mxCell>
        <mxCell id="OClYr13SCYS-E_LwmGBs-24" value="" style="shape=mxgraph.signs.sports.dirt_bike;html=1;pointerEvents=1;fillColor=#000000;strokeColor=none;verticalLabelPosition=bottom;verticalAlign=top;align=center;" vertex="1" parent="1">
          <mxGeometry x="280" y="323" width="80" height="64" as="geometry" />
        </mxCell>
        <mxCell id="OClYr13SCYS-E_LwmGBs-25" value="" style="shape=mxgraph.signs.sports.dirt_bike;html=1;pointerEvents=1;fillColor=#000000;strokeColor=none;verticalLabelPosition=bottom;verticalAlign=top;align=center;" vertex="1" parent="1">
          <mxGeometry x="280" y="256" width="80" height="64" as="geometry" />
        </mxCell>
        <mxCell id="OClYr13SCYS-E_LwmGBs-26" value="" style="verticalLabelPosition=bottom;html=1;verticalAlign=top;align=center;shape=mxgraph.floorplan.stairsRest;direction=south;" vertex="1" parent="1">
          <mxGeometry x="110" y="320" width="80" height="140" as="geometry" />
        </mxCell>
        <mxCell id="OClYr13SCYS-E_LwmGBs-30" value="Phòng Chăm Sóc Khách Hàng" style="text;html=1;align=center;verticalAlign=middle;resizable=0;points=[];autosize=1;strokeColor=none;fillColor=none;" vertex="1" parent="1">
          <mxGeometry x="540" y="80" width="190" height="30" as="geometry" />
        </mxCell>
        <mxCell id="OClYr13SCYS-E_LwmGBs-31" value="Phòng vệ sinh" style="text;html=1;align=center;verticalAlign=middle;resizable=0;points=[];autosize=1;strokeColor=none;fillColor=none;" vertex="1" parent="1">
          <mxGeometry x="170" y="80" width="100" height="30" as="geometry" />
        </mxCell>
        <mxCell id="OClYr13SCYS-E_LwmGBs-33" value="" style="html=1;strokeWidth=1;shadow=0;dashed=0;shape=mxgraph.ios7.misc.wifi;fillColor=#007AFF;strokeColor=none;buttonText=;strokeColor2=#222222;fontColor=#222222;fontSize=8;verticalLabelPosition=bottom;verticalAlign=top;align=center;sketch=0;" vertex="1" parent="1">
          <mxGeometry x="510" y="80" width="30" height="35" as="geometry" />
        </mxCell>
        <mxCell id="OClYr13SCYS-E_LwmGBs-34" value="Wifi" style="text;html=1;align=center;verticalAlign=middle;resizable=0;points=[];autosize=1;strokeColor=none;fillColor=none;" vertex="1" parent="1">
          <mxGeometry x="500" y="115" width="40" height="30" as="geometry" />
        </mxCell>
        <mxCell id="OClYr13SCYS-E_LwmGBs-36" value="" style="rounded=0;whiteSpace=wrap;html=1;" vertex="1" parent="1">
          <mxGeometry x="340" y="80" width="170" height="110" as="geometry" />
        </mxCell>
        <mxCell id="OClYr13SCYS-E_LwmGBs-37" value="" style="sketch=0;pointerEvents=1;shadow=0;dashed=0;html=1;strokeColor=none;labelPosition=center;verticalLabelPosition=bottom;verticalAlign=top;align=center;fillColor=#515151;shape=mxgraph.mscae.system_center.admin_console" vertex="1" parent="1">
          <mxGeometry x="360" y="140" width="50" height="36" as="geometry" />
        </mxCell>
        <mxCell id="OClYr13SCYS-E_LwmGBs-38" value="" style="sketch=0;pointerEvents=1;shadow=0;dashed=0;html=1;strokeColor=none;labelPosition=center;verticalLabelPosition=bottom;verticalAlign=top;align=center;fillColor=#515151;shape=mxgraph.mscae.system_center.admin_console" vertex="1" parent="1">
          <mxGeometry x="440" y="140" width="50" height="36" as="geometry" />
        </mxCell>
        <mxCell id="OClYr13SCYS-E_LwmGBs-39" value="Phòng quản lý kho hàng" style="text;html=1;align=center;verticalAlign=middle;resizable=0;points=[];autosize=1;strokeColor=none;fillColor=none;" vertex="1" parent="1">
          <mxGeometry x="350" y="80" width="150" height="30" as="geometry" />
        </mxCell>
      </root>
    </mxGraphModel>
  </diagram>
</mxfile>
